<svg width="40" height="40" viewBox="0 0 40 40" fill="none" xmlns="http://www.w3.org/2000/svg">
<g id="Frame">
<path id="Vector" d="M36.25 11.25V28.75C36.25 29.7446 35.8549 30.6984 35.1516 31.4016C34.4484 32.1049 33.4946 32.5 32.5 32.5H7.5C6.50544 32.5 5.55161 32.1049 4.84835 31.4016C4.14509 30.6984 3.75 29.7446 3.75 28.75V11.25M36.25 11.25C36.25 10.2554 35.8549 9.30161 35.1516 8.59835C34.4484 7.89509 33.4946 7.5 32.5 7.5H7.5C6.50544 7.5 5.55161 7.89509 4.84835 8.59835C4.14509 9.30161 3.75 10.2554 3.75 11.25M36.25 11.25V11.655C36.2501 12.2952 36.0862 12.9248 35.7741 13.4838C35.4619 14.0428 35.0118 14.5126 34.4667 14.8483L21.9667 22.54C21.3753 22.9042 20.6945 23.0971 20 23.0971C19.3055 23.0971 18.6247 22.9042 18.0333 22.54L5.53333 14.85C4.9882 14.5142 4.53812 14.0445 4.22595 13.4855C3.91378 12.9265 3.74993 12.2969 3.75 11.6567V11.25" stroke="#B68C5A" stroke-width="1.5" stroke-linecap="round" stroke-linejoin="round"/>
</g>
</svg>
