<svg width="159" height="46" viewBox="0 0 159 46" fill="none" xmlns="http://www.w3.org/2000/svg">
<path d="M19.7224 14.1358L30.0959 3.84766L40.7683 14.52L30.4375 24.8081L19.7224 14.1358Z" fill="#B68C5A"/>
<path d="M18.8687 12.4708C18.2283 13.1111 17.2038 13.1111 16.6061 12.4708L16.5208 12.3854C15.9231 11.7878 15.9658 10.934 16.4354 10.2509C18.954 6.28084 23.223 2.09729 26.4247 0.304336C27.1504 -0.0798678 27.9615 -0.165247 28.5591 0.432403L28.6872 0.560471C29.2849 1.15812 29.2849 2.18266 28.6872 2.78031L18.8687 12.4708Z" fill="#B68C5A"/>
<path d="M32.0597 25.7044C31.4193 26.3447 31.4193 27.3266 32.0597 27.9669L32.145 28.0523C32.7427 28.6499 33.5965 28.6072 34.2795 28.1804C38.2923 25.6617 42.5185 21.4354 44.3115 18.2337C44.6957 17.508 44.7811 16.6969 44.1834 16.0993L44.0553 15.9712C43.4577 15.3736 42.4332 15.3309 41.7928 15.9712L32.0597 25.7044Z" fill="#B68C5A"/>
<path d="M1.23799 43.1642C1.02454 43.0789 0.939164 42.8227 0.768407 42.6946C0.256135 42.0116 0 41.1578 0 40.304C0.0426893 39.2368 0.469582 38.255 1.28068 37.5292L22.1557 19.1729L23.7779 20.7524L25.3574 22.3745L6.87297 43.1215C6.14726 43.8899 5.1654 44.3595 4.09817 44.4022C3.24439 44.4022 2.3906 44.1461 1.70757 43.6338C1.53681 43.4631 1.32337 43.3777 1.23799 43.1642Z" fill="#B68C5A"/>
<path d="M19.2102 36.7607L18.0149 38.1268V39.5355H16.905L15.4109 41.0297V44.9998H43.8846V41.0297L42.3478 39.5355H41.2379V38.1268L40.0426 36.7607H19.2102Z" fill="#B68C5A"/>
<path d="M62.7858 42C59.3558 42 57.6408 41.3 57.6408 39.9C57.6408 39.41 57.8508 38.9317 58.2708 38.465C58.6908 38.0217 59.1108 37.8 59.5308 37.8C59.7875 37.8 60.0325 37.87 60.2658 38.01C60.4991 38.15 60.7325 38.3483 60.9658 38.605C61.4325 39.165 61.7708 39.62 61.9808 39.97C62.2141 40.3433 62.4591 40.53 62.7158 40.53C63.3925 40.53 63.9175 40.0867 64.2908 39.2C64.6875 38.3133 64.8858 36.8083 64.8858 34.685V15.715C64.8858 14.9683 64.7341 14.4433 64.4308 14.14C64.1275 13.8367 63.5091 13.58 62.5758 13.37C62.1325 13.2533 61.9108 12.9967 61.9108 12.6C61.9108 12.4367 61.9808 12.3083 62.1208 12.215C62.2608 12.1217 62.4008 12.075 62.5408 12.075C63.0541 12.075 63.6258 12.0867 64.2558 12.11C64.9091 12.1333 65.5391 12.1683 66.1458 12.215C66.7758 12.2383 67.3241 12.25 67.7908 12.25C68.2575 12.25 68.8175 12.2383 69.4708 12.215C70.1241 12.1917 70.7891 12.1683 71.4658 12.145C72.1425 12.1217 72.7258 12.11 73.2158 12.11C73.4025 12.11 73.5425 12.1567 73.6358 12.25C73.7291 12.32 73.7758 12.4483 73.7758 12.635C73.7758 12.8683 73.7175 13.0317 73.6008 13.125C73.4841 13.2183 73.3208 13.3 73.1108 13.37C72.1541 13.65 71.5358 13.9417 71.2558 14.245C70.9758 14.5483 70.8358 15.05 70.8358 15.75V31.71C70.8358 32.2467 70.7191 32.9 70.4858 33.67C70.2525 34.4167 69.9141 35.1983 69.4708 36.015C69.0508 36.855 68.5608 37.6483 68.0008 38.395C67.2541 39.3983 66.4258 40.25 65.5158 40.95C64.6058 41.65 63.6958 42 62.7858 42ZM84.6854 35.735C84.4754 35.735 84.3704 35.6183 84.3704 35.385C84.3704 35.105 84.3938 34.7317 84.4404 34.265C84.5104 33.775 84.5454 33.4133 84.5454 33.18C84.5454 33.0633 84.5338 32.97 84.5104 32.9C84.5104 32.83 84.4988 32.7833 84.4754 32.76C83.9154 33.4833 83.1338 34.125 82.1304 34.685C81.1271 35.245 80.0888 35.525 79.0154 35.525C78.2921 35.525 77.6388 35.3033 77.0554 34.86C76.4721 34.3933 76.0054 33.775 75.6554 33.005C75.3288 32.235 75.1654 31.3833 75.1654 30.45V24.01C75.1654 23.4733 75.0721 23.0417 74.8854 22.715C74.6988 22.365 74.3371 22.1433 73.8004 22.05C73.6604 22.0267 73.5321 21.9683 73.4154 21.875C73.2988 21.7583 73.2404 21.595 73.2404 21.385C73.2404 21.2217 73.2871 21.0817 73.3804 20.965C73.4738 20.8483 73.6021 20.7783 73.7654 20.755C74.7921 20.7083 75.7371 20.6033 76.6004 20.44C77.4871 20.2767 78.3621 20.09 79.2254 19.88C79.3421 19.8333 79.4704 19.7983 79.6104 19.775C79.7738 19.7283 79.9254 19.705 80.0654 19.705C80.3921 19.705 80.5438 19.8683 80.5204 20.195C80.4271 20.7317 80.3571 21.1867 80.3104 21.56C80.2638 21.91 80.2404 22.3533 80.2404 22.89V29.575C80.2404 30.135 80.3221 30.625 80.4854 31.045C80.6488 31.4417 80.8821 31.7567 81.1854 31.99C81.4888 32.2 81.8271 32.3167 82.2004 32.34C82.5271 32.34 82.8538 32.2933 83.1804 32.2C83.5304 32.0833 83.8571 31.8733 84.1604 31.57C84.2771 31.4533 84.3821 31.22 84.4754 30.87C84.5921 30.52 84.6504 30.0533 84.6504 29.47V24.01C84.6504 23.6133 84.5804 23.275 84.4404 22.995C84.3238 22.715 84.1254 22.4933 83.8454 22.33C83.5888 22.1433 83.2621 22.0383 82.8654 22.015C82.5854 21.9917 82.3638 21.9217 82.2004 21.805C82.0604 21.6883 81.9904 21.49 81.9904 21.21C81.9904 20.9533 82.0721 20.7667 82.2354 20.65C82.4221 20.5333 82.6321 20.475 82.8654 20.475C84.1488 20.3817 85.1638 20.3117 85.9104 20.265C86.6571 20.195 87.2638 20.125 87.7304 20.055C88.1971 19.985 88.6521 19.9033 89.0954 19.81C89.1654 19.7867 89.2471 19.7633 89.3404 19.74C89.4338 19.7167 89.5154 19.705 89.5854 19.705C89.9354 19.705 90.1104 19.845 90.1104 20.125C90.1104 20.2183 90.0988 20.3117 90.0754 20.405C90.0521 20.4983 90.0171 20.6033 89.9704 20.72C89.9471 20.8133 89.9121 21.0233 89.8654 21.35C89.8421 21.6533 89.8071 21.98 89.7604 22.33C89.7371 22.68 89.7254 22.96 89.7254 23.17V31.29C89.7254 31.8033 89.7838 32.1417 89.9004 32.305C90.0404 32.4683 90.1921 32.55 90.3554 32.55C90.4488 32.55 90.5888 32.5617 90.7754 32.585C90.9854 32.585 91.1254 32.585 91.1954 32.585C91.4288 32.585 91.6038 32.655 91.7204 32.795C91.8371 32.9117 91.8954 33.0633 91.8954 33.25C91.8954 33.4833 91.8488 33.67 91.7554 33.81C91.6854 33.95 91.5221 34.0317 91.2654 34.055C90.0988 34.1483 89.0371 34.3467 88.0804 34.65C87.1238 34.9533 86.3071 35.2333 85.6304 35.49C85.4671 35.56 85.3038 35.6183 85.1404 35.665C84.9771 35.7117 84.8254 35.735 84.6854 35.735ZM98.1137 35.49C97.3203 35.49 96.5503 35.3967 95.8037 35.21C95.0803 35.0467 94.4037 34.755 93.7737 34.335C93.5403 33.9617 93.377 33.39 93.2837 32.62C93.1903 31.8267 93.1553 30.975 93.1787 30.065C93.1787 29.7617 93.4237 29.61 93.9137 29.61C94.1237 29.61 94.2987 29.68 94.4387 29.82C94.602 29.96 94.707 30.0883 94.7537 30.205C95.2203 31.1383 95.7337 31.9783 96.2937 32.725C96.8537 33.4483 97.5653 33.81 98.4287 33.81C99.0353 33.81 99.4787 33.6233 99.7587 33.25C100.062 32.8767 100.214 32.4683 100.214 32.025C100.214 31.4183 99.9687 30.9167 99.4787 30.52C98.9887 30.1233 98.452 29.785 97.8687 29.505C97.2153 29.1783 96.5737 28.805 95.9437 28.385C95.3137 27.9417 94.7887 27.3933 94.3687 26.74C93.9487 26.0867 93.7387 25.2933 93.7387 24.36C93.7387 23.4033 93.9953 22.5867 94.5087 21.91C95.0453 21.21 95.757 20.6733 96.6437 20.3C97.5303 19.9033 98.4987 19.705 99.5487 19.705C100.342 19.705 101.077 19.7983 101.754 19.985C102.454 20.1483 102.932 20.3117 103.189 20.475C103.375 20.7083 103.515 21.1633 103.609 21.84C103.725 22.4933 103.784 23.24 103.784 24.08C103.784 24.3367 103.55 24.465 103.084 24.465C102.92 24.465 102.745 24.4067 102.559 24.29C102.372 24.15 102.255 24.0217 102.209 23.905C101.905 22.9717 101.509 22.2717 101.019 21.805C100.552 21.3383 100.039 21.105 99.4787 21.105C98.9653 21.105 98.4987 21.2683 98.0787 21.595C97.682 21.9217 97.4837 22.3533 97.4837 22.89C97.4837 23.3567 97.717 23.7883 98.1837 24.185C98.6737 24.5583 99.2337 24.9083 99.8637 25.235C101.404 26.0283 102.5 26.7983 103.154 27.545C103.807 28.2917 104.134 29.295 104.134 30.555C104.134 32.1183 103.632 33.3317 102.629 34.195C101.625 35.0583 100.12 35.49 98.1137 35.49ZM112.959 35.49C111.326 35.49 110.113 35.0933 109.319 34.3C108.526 33.5067 108.129 32.3867 108.129 30.94V22.89C108.129 22.68 108.048 22.5283 107.884 22.435C107.721 22.3417 107.441 22.2833 107.044 22.26H106.519C106.356 22.26 106.216 22.12 106.099 21.84C105.983 21.5367 105.924 21.2683 105.924 21.035C105.924 20.9883 105.936 20.93 105.959 20.86C105.983 20.79 106.041 20.7433 106.134 20.72C106.718 20.5333 107.359 20.2067 108.059 19.74C108.759 19.2733 109.436 18.7833 110.089 18.27C110.743 17.7333 111.268 17.3017 111.664 16.975C111.851 16.835 112.003 16.7183 112.119 16.625C112.259 16.5317 112.423 16.485 112.609 16.485C112.843 16.485 113.006 16.5317 113.099 16.625C113.193 16.7183 113.216 16.9283 113.169 17.255L112.924 19.425C112.901 19.7283 112.971 19.9383 113.134 20.055C113.298 20.1483 113.519 20.195 113.799 20.195H117.999C118.046 20.195 118.104 20.2767 118.174 20.44C118.244 20.6033 118.279 20.7433 118.279 20.86C118.279 21.2333 118.233 21.5833 118.139 21.91C118.046 22.2133 117.941 22.365 117.824 22.365H114.604C114.091 22.365 113.729 22.435 113.519 22.575C113.309 22.715 113.204 22.9367 113.204 23.24V29.785C113.204 30.8817 113.403 31.6983 113.799 32.235C114.219 32.7483 114.768 33.005 115.444 33.005C116.098 33.005 116.576 32.935 116.879 32.795C117.183 32.655 117.463 32.5383 117.719 32.445C117.813 32.3983 117.894 32.375 117.964 32.375C118.081 32.375 118.174 32.4567 118.244 32.62C118.314 32.76 118.349 32.935 118.349 33.145C118.349 33.285 118.093 33.5533 117.579 33.95C117.066 34.3233 116.401 34.6733 115.584 35C114.768 35.3267 113.893 35.49 112.959 35.49ZM119.879 35.105C119.739 35.105 119.61 35.0583 119.494 34.965C119.377 34.8717 119.319 34.755 119.319 34.615C119.319 34.4283 119.365 34.2767 119.459 34.16C119.575 34.0433 119.727 33.9617 119.914 33.915C120.544 33.7517 120.975 33.5883 121.209 33.425C121.465 33.2617 121.594 32.9933 121.594 32.62V25.06C121.594 24.22 121.465 23.66 121.209 23.38C120.975 23.0767 120.602 22.89 120.089 22.82C119.949 22.7967 119.844 22.7267 119.774 22.61C119.704 22.47 119.669 22.3183 119.669 22.155C119.669 21.7817 119.809 21.5717 120.089 21.525C121.349 21.2683 122.492 20.93 123.519 20.51C124.545 20.0667 125.327 19.7283 125.864 19.495C126.284 19.3083 126.54 19.215 126.634 19.215C126.96 19.215 127.124 19.3783 127.124 19.705C127.1 20.1483 127.042 20.6733 126.949 21.28C126.879 21.8633 126.809 22.47 126.739 23.1C126.692 23.73 126.669 24.3367 126.669 24.92V32.585C126.669 32.8883 126.785 33.1333 127.019 33.32C127.252 33.5067 127.695 33.705 128.349 33.915C128.535 33.985 128.687 34.0667 128.804 34.16C128.92 34.2533 128.979 34.3933 128.979 34.58C128.979 34.9067 128.804 35.07 128.454 35.07C128.01 35.07 127.52 35.0583 126.984 35.035C126.47 35.0117 125.957 34.9883 125.444 34.965C124.954 34.9417 124.499 34.93 124.079 34.93C123.682 34.93 123.239 34.9417 122.749 34.965C122.282 34.9883 121.804 35.0117 121.314 35.035C120.824 35.0817 120.345 35.105 119.879 35.105ZM123.939 17.92C123.145 17.92 122.457 17.6283 121.874 17.045C121.29 16.4617 120.999 15.7733 120.999 14.98C120.999 14.1167 121.29 13.3933 121.874 12.81C122.457 12.2267 123.145 11.935 123.939 11.935C124.802 11.935 125.525 12.2267 126.109 12.81C126.692 13.3933 126.984 14.1167 126.984 14.98C126.984 15.7733 126.692 16.4617 126.109 17.045C125.525 17.6283 124.802 17.92 123.939 17.92ZM136.702 35.49C135.442 35.49 134.31 35.1517 133.307 34.475C132.304 33.7983 131.51 32.8883 130.927 31.745C130.344 30.5783 130.052 29.2717 130.052 27.825C130.052 26.3083 130.402 24.9433 131.102 23.73C131.825 22.5167 132.782 21.5483 133.972 20.825C135.162 20.1017 136.492 19.74 137.962 19.74C139.969 19.74 141.614 20.4167 142.897 21.77C143.084 22.0033 143.177 22.2133 143.177 22.4C143.177 22.54 143.072 22.75 142.862 23.03C142.652 23.2867 142.407 23.5317 142.127 23.765C141.87 23.975 141.649 24.08 141.462 24.08C141.229 24.08 141.007 24.01 140.797 23.87C140.587 23.73 140.389 23.5783 140.202 23.415C139.572 22.8783 138.942 22.4583 138.312 22.155C137.705 21.8283 137.169 21.665 136.702 21.665C135.885 21.665 135.279 22.0033 134.882 22.68C134.485 23.3333 134.287 24.4883 134.287 26.145C134.287 27.2883 134.45 28.2683 134.777 29.085C135.104 29.9017 135.594 30.5317 136.247 30.975C136.9 31.395 137.705 31.605 138.662 31.605C139.362 31.605 139.969 31.4883 140.482 31.255C141.019 31.0217 141.567 30.695 142.127 30.275C142.244 30.1817 142.349 30.1 142.442 30.03C142.535 29.96 142.64 29.925 142.757 29.925C143.037 29.925 143.177 30.1117 143.177 30.485C143.177 30.5783 143.165 30.7067 143.142 30.87C143.119 31.0333 143.06 31.22 142.967 31.43C142.78 31.8967 142.384 32.4567 141.777 33.11C141.17 33.74 140.435 34.3 139.572 34.79C138.709 35.2567 137.752 35.49 136.702 35.49ZM151.126 35.49C149.866 35.49 148.734 35.1517 147.731 34.475C146.727 33.7983 145.934 32.8883 145.351 31.745C144.767 30.5783 144.476 29.2717 144.476 27.825C144.476 26.3317 144.826 24.9783 145.526 23.765C146.226 22.5283 147.171 21.5483 148.361 20.825C149.551 20.1017 150.869 19.74 152.316 19.74C153.319 19.74 154.229 19.9617 155.046 20.405C155.862 20.8483 156.516 21.4433 157.006 22.19C157.496 22.9133 157.741 23.7417 157.741 24.675C157.741 25.585 157.379 26.04 156.656 26.04H149.726C149.399 26.04 149.154 26.1333 148.991 26.32C148.851 26.5067 148.781 26.8217 148.781 27.265C148.781 28.105 148.967 28.875 149.341 29.575C149.714 30.2517 150.227 30.7883 150.881 31.185C151.534 31.5817 152.292 31.78 153.156 31.78C153.832 31.78 154.451 31.6517 155.011 31.395C155.594 31.1383 156.177 30.7883 156.761 30.345C156.831 30.2983 156.912 30.2517 157.006 30.205C157.099 30.135 157.181 30.1 157.251 30.1C157.507 30.1 157.636 30.2517 157.636 30.555C157.636 30.765 157.566 31.08 157.426 31.5C157.216 32.13 156.831 32.76 156.271 33.39C155.711 33.9967 154.987 34.4983 154.101 34.895C153.237 35.2917 152.246 35.49 151.126 35.49ZM149.726 24.5H151.581C152.257 24.5 152.701 24.4883 152.911 24.465C153.144 24.4417 153.354 24.395 153.541 24.325C153.657 24.2783 153.751 24.15 153.821 23.94C153.891 23.73 153.926 23.5083 153.926 23.275C153.926 22.6683 153.727 22.1783 153.331 21.805C152.957 21.4083 152.467 21.21 151.861 21.21C151.394 21.21 150.951 21.35 150.531 21.63C150.134 21.8867 149.807 22.225 149.551 22.645C149.294 23.065 149.177 23.5083 149.201 23.975C149.201 24.325 149.376 24.5 149.726 24.5Z" fill="white"/>
</svg>
