<svg width="40" height="40" viewBox="0 0 40 40" fill="none" xmlns="http://www.w3.org/2000/svg">
<g id="Frame">
<path id="Vector" d="M25 17.5C25 18.8261 24.4732 20.0979 23.5355 21.0355C22.5979 21.9732 21.3261 22.5 20 22.5C18.6739 22.5 17.4021 21.9732 16.4645 21.0355C15.5268 20.0979 15 18.8261 15 17.5C15 16.1739 15.5268 14.9021 16.4645 13.9645C17.4021 13.0268 18.6739 12.5 20 12.5C21.3261 12.5 22.5979 13.0268 23.5355 13.9645C24.4732 14.9021 25 16.1739 25 17.5Z" stroke="#B68C5A" stroke-width="1.5" stroke-linecap="round" stroke-linejoin="round"/>
<path id="Vector_2" d="M32.5 17.5C32.5 29.4033 20 36.25 20 36.25C20 36.25 7.5 29.4033 7.5 17.5C7.5 14.1848 8.81696 11.0054 11.1612 8.66117C13.5054 6.31696 16.6848 5 20 5C23.3152 5 26.4946 6.31696 28.8388 8.66117C31.183 11.0054 32.5 14.1848 32.5 17.5Z" stroke="#B68C5A" stroke-width="1.5" stroke-linecap="round" stroke-linejoin="round"/>
</g>
</svg>
